<svg xmlns="http://www.w3.org/2000/svg" xmlns:xlink="http://www.w3.org/1999/xlink" version="1.1" x="0px" y="0px" viewBox="0 0 300 250" enable-background="new 0 0 300 250" xml:space="preserve"><g class="bel"><path d="M53.3 67.8c1.7-9.6 2.7-14.9 4.4-26.3c1.8-1.1 5-2.7 6.8-2.7c1.1 0 1.7 0.6 1.7 1.8c0 1.6-1.2 6.8-2.7 14.1 c-4.9 24.7-5 32.9-5 34.7c0 5.7 1.1 9 9.5 9c11.2 0 21.7-5.8 21.7-18.3c0-11.4-8.9-18.1-21.3-18.1l0.1-2.4 c10.2-0.2 19.9-7 19.9-17.5c0-10-8.7-15.2-20-15.2c-7.7 0-15.6 2.5-21.8 7.7c-6.5 5.4-9.5 12.5-9.5 20c0 6.8 2.5 14.1 9.2 17 l-0.4 1.6c-9.1 0-15.8-7.1-15.8-17.1c0-9.6 5.9-18.6 14.3-24.6c7.7-5.6 17.1-8.4 26.1-8.4c11.8 0 26.3 4.8 26.3 17.5 c0 9.1-7.6 16.1-16.1 19.1v0.2c9.7 1.3 18.2 7.7 18.2 18.2c0 16.2-19.9 24.1-32.9 24.1c-3.6 0-5.8-0.6-7.5-1.2 c-1.4 0.6-3.3 1.3-4.5 1.3c-2.9 0-3.5-3.8-3.5-8.2C50.3 90.7 50.7 82 53.3 67.8z"/><path d="M113.1 63.7c3.5-3.1 8-5.3 12.2-5.3c4.7 0 7.7 2.9 7.7 7.4c0 4.1-2.6 8-6.2 10.9c-4.3 3.5-10.2 5.8-15 7 c0.4 9.1 5.3 15.1 11.5 15.1c7.6 0 16-9.2 19.4-28.3l2.5 0.3c-4.1 23.2-15 32.2-24.6 32.2c-8.5 0-16.8-7-16.8-18.7 C103.8 77.1 106.8 69.2 113.1 63.7z M126.4 67.6c0-3.2-1.4-5-4-5c-2.9 0-5.5 2.3-7.6 6.3c-1.7 3.5-2.8 7.8-3 11.7 C117.5 79.5 126.4 75.5 126.4 67.6z"/><path d="M147.2 45.7c0.8-3 3.6-12.6 6.4-18.8c2.6-2.1 6.3-4 7.8-4c0.4 0 0.7 0.1 1.2 0.4c4 2.7 6 10.4 6 16.8 c0 11.9-7.1 27.2-18.9 30.9c-0.4 4.2-0.7 8.3-0.7 11.8c0 11.4 3.3 16.1 7 16.1c3.2 0 7.8-3.7 11.6-15.1l2.6 0.8 c-3.3 9.6-8.8 18.2-16.6 18.2c-5.4 0-12.5-4.2-12.5-19.6C140.9 73.6 143.7 58.3 147.2 45.7z M163.3 43.5c0-5-1.1-10.6-4.2-14.2 c-2.2 6.2-3.7 11.9-4.6 15.7c-1.4 5.8-3.3 14.9-4.4 23C158.5 64.9 163.3 53.8 163.3 43.5z"/></g><g class="and"><path d="M188.9 99.6c0-16.1 12.5-28 29.2-34.2v-0.3c-7.1-3.1-13.5-10.1-13.5-18.9c0-14 16.4-24.2 29.9-24.2c10.3 0 19 6.1 19 14.6 c0 4.6-2.5 8.8-6.5 11.2l-1.6-1.2c0.6-0.9 1-2.5 1-4.8c0-7.7-5.8-15-15.5-15c-8.6 0-16.5 5.8-16.5 14.7c0 8.2 6.7 16.5 21.4 20.5 l-0.6 3.6c-21.7 2.2-33.6 15.3-33.6 30.5c0 7.9 3.3 14.9 8.8 19.9c5.2 4.9 12.8 8.2 21.3 8.2c13.7 0 29-8.5 29-24.1 c0-10.4-6.8-16.1-19.2-16.1c-3.6 0-7.3 0.4-11 1.2l-0.3-4.6c0.7 0 3.1 0 6.1-0.1c8.8-0.4 19.3-2.5 27.2-9.4 c6.1-5.4 10.6-13.2 10.6-21.6s-4.6-16.4-14.4-18.3l0.6-2.5c11.9 0.3 23.1 6.1 23.1 19.5c0 14.3-12.9 25.9-26.5 31.5V80 c9.4 1.8 13.2 9.1 13.2 16.5c0 8.2-4.5 17.4-14.1 24.2c-8.6 6.1-19.9 9.2-30 9.2c-8.3 0-17.6-2.1-25-7.4 C193.8 117.5 188.9 109.6 188.9 99.6z"/></g><g class="dylan"><path d="M41.6 167.4c1.4-8 2.9-16 4.3-26.1c1.7-1.1 5.1-2.7 6.7-2.7c1.1 0 1.7 0.7 1.7 1.7c0 1.2-1.7 10.3-2.9 15.9 c-2.2 10.5-4.8 25.8-4.8 33.8c0 5.2 1.1 8.5 8.9 8.5c9.7 0 16.6-5.1 21.4-13.8c4.5-8.1 6.9-18.6 6.9-27.2 c0-15.5-7.5-30.3-27.2-30.3c-8.2 0-16.1 2.6-22.1 7.6c-5.9 5-9.4 12.1-9.4 20c0 6.7 2.5 14.1 9.2 17l-0.4 1.6 c-9.1 0-15.8-7.2-15.8-17.2c0-9.3 5.7-18.4 14.2-24.5c7.7-5.6 17.1-8.4 26.9-8.4c22.9 0 33.3 15.2 33.3 32.6 c0 11.3-4.4 23.3-11 31.7c-7.3 9.3-17.5 14.6-28.7 14.6c-3.2 0-5.1-0.4-6.5-0.9c-1.4 0.6-3.3 1.3-4.4 1.3c-2.8 0-3.6-3.9-3.6-8.3 C38.4 191 38.9 182.6 41.6 167.4z"/><path d="M101.1 167.5c0-2.9-0.3-4.7-0.7-6c1.4-1.1 4.1-2.8 5.9-2.8c2.1 0 3.1 2.4 3.1 5.8c0 5.9-2.9 16.1-2.9 24 c0 6.5 1.9 10.1 5 10.1c4.3 0 7.7-7 10.4-16.4c1.9-7 3.5-15.1 4.1-21.1c1.6-1 4.7-2.4 6.4-2.4c1.2 0 1.8 0.7 1.8 2.3 c0 1.2-0.4 3.8-1 7.9c-1.9 12.9-2.8 21.7-3.8 29.2c-1.8 13.6-4 21.4-7.9 26.8c-3.6 5-9.3 8.9-15.7 8.9c-8 0-13.4-6.3-13.4-13 c0-4.3 2.3-9 5.9-12l1.1 1.1c-1.3 1.8-1.9 3.7-1.9 6.3c0 7.5 5.1 13.3 11.5 13.3c4.5 0 7.3-3 9.2-7.2c2.2-4.6 3.1-10.4 3.9-17.8 c0.7-6.5 0.9-10.6 1.2-17.2h-0.2c-3.1 9.7-8.1 15.8-14.3 15.8c-5.9 0-10.4-5.7-10.4-13.6C98.5 183.5 101.1 175.9 101.1 167.5z"/><path d="M140.6 183.5c0-9.6 2.8-24.9 6.3-37.5c0.8-3 3.6-12.6 6.4-18.8c2.6-2.1 6.3-4 7.8-4c0.4 0 0.7 0.1 1.2 0.4 c4 2.7 6 10.4 6 16.8c0 11.9-7.1 27.2-18.9 30.9c-0.4 4.2-0.7 8.3-0.7 11.8c0 11.5 3.3 16.1 6.9 16.1c4.3 0 10.5-6.6 14.4-28.6 l2.5 0.3c-3.4 19.9-10 32.2-19.3 32.2C147.6 203.1 140.6 198.9 140.6 183.5z M162.9 143.7c0-5-1.1-10.6-4.2-14.2 c-2.2 6.2-3.7 11.9-4.6 15.7c-1.4 5.8-3.3 14.9-4.4 23C158.2 165.2 162.9 154.1 162.9 143.7z"/><path d="M162.1 186.9c0-8.1 3.3-15.6 7.6-20.4c4.2-4.8 10.2-7.8 16.8-7.8c4.2 0 8 1.1 11.8 3.3c-1.3 7.1-3 17.4-3 24.8 c0 6.9 1.4 12.3 4.7 12.3c3.8 0 8.7-7.5 12.4-28.5l2.5 0.3c-4.4 25.5-10.7 32.3-16.9 32.3c-7.1 0-10.6-8.6-10.4-17.3h-0.2 c-3.7 11.7-8.4 17.2-14.2 17.2C167.3 203.1 162.1 197.2 162.1 186.9z M184.5 186.3c2.3-6.6 4.1-14.7 5.4-21.1 c-2.1-1.4-4.6-2.2-7.1-2.2c-3 0-5.8 1-8.1 3.2c-2.7 4.5-4.6 12-4.6 19.1c0 7.4 2.2 13.4 5.6 13.4 C178.5 198.7 181.5 195 184.5 186.3z"/><path d="M238.3 166.8c0-1.8-0.8-3.1-2.7-3.1c-4.7 0-9.4 9-11.6 14.9c-2.8 7.4-4.1 15.6-4.5 22.6c-2.1 1.1-4.1 1.7-5.1 1.7 c-3.6 0-4.2-7.5-4.2-12.3c0-9.3 2.5-19.5 3.4-29.3c1.7-1.1 4.9-2.5 6.6-2.5c1.2 0 1.8 0.8 1.8 2.3c0 2.3-1.7 8.6-2.8 15.5 c-0.6 4-1.1 9-1.1 12.7h0.3c0.7-3.8 1.8-8.8 3.7-13.3c3.8-9.5 9.2-16.6 16.1-17.5c3.8 0.8 7.1 2.9 9.2 5.8c-1.4 7-3.9 14.8-3.9 23 c0 7.1 1.8 11.9 5.1 11.9c2.9 0 7-3.9 10.3-15.1l2.3 0.7c-4.3 14.9-10.2 18.4-14.8 18.4c-5.5 0-10.9-4.5-10.9-15.9 C235.6 178.7 238.3 170.1 238.3 166.8z"/></g></svg>
