<svg xmlns="http://www.w3.org/2000/svg" xmlns:xlink="http://www.w3.org/1999/xlink" version="1.0" id="Layer_1" x="0px" y="0px" width="50px" height="50px" viewBox="0 0 50 50" enable-background="new 0 0 50 50" xml:space="preserve">
<g>
	<path fill="#000000" d="M25.074,49.623c-13.452,0-24.397-10.944-24.397-24.398c0-13.453,10.945-24.397,24.397-24.397   c13.454,0,24.399,10.944,24.399,24.397C49.473,38.679,38.527,49.623,25.074,49.623z M25.074,3.304   c-12.088,0-21.921,9.834-21.921,21.921c0,12.088,9.833,21.923,21.921,21.923c12.088,0,21.922-9.835,21.922-21.923   C46.996,13.138,37.162,3.304,25.074,3.304z M25.074,43.035c-9.82,0-17.81-7.99-17.81-17.81c0-9.819,7.989-17.808,17.81-17.808   c9.821,0,17.809,7.989,17.809,17.808C42.883,35.045,34.895,43.035,25.074,43.035z M25.074,9.893   c-8.455,0-15.333,6.878-15.333,15.333c0,8.455,6.878,15.333,15.333,15.333c8.456,0,15.333-6.879,15.333-15.333   C40.406,16.771,33.529,9.893,25.074,9.893z"/>
	<path fill="#000000" d="M25.074,8.655c-9.151,0-16.571,7.418-16.571,16.57c0,9.153,7.42,16.572,16.571,16.572   c9.153,0,16.571-7.419,16.571-16.572C41.645,16.073,34.227,8.655,25.074,8.655z M19.783,33.512c-1.874,0-3.393-1.52-3.393-3.395   c0-1.874,1.519-3.395,3.393-3.395c1.875,0,3.395,1.521,3.395,3.395C23.177,31.992,21.658,33.512,19.783,33.512z M19.783,23.728   c-1.874,0-3.393-1.52-3.393-3.394c0-1.875,1.519-3.394,3.393-3.394c1.875,0,3.395,1.52,3.395,3.394   C23.177,22.208,21.658,23.728,19.783,23.728z M30.365,33.512c-1.875,0-3.395-1.52-3.395-3.395c0-1.874,1.52-3.395,3.395-3.395   s3.395,1.521,3.395,3.395C33.76,31.992,32.24,33.512,30.365,33.512z M30.365,23.728c-1.875,0-3.395-1.52-3.395-3.394   c0-1.875,1.52-3.394,3.395-3.394s3.395,1.52,3.395,3.394C33.76,22.208,32.24,23.728,30.365,23.728z"/>
</g>
</svg>